{
	"asset":{
		"version":"2.0",
		"generator":""
	},
	"scenes":[{
		"nodes":[0]
	}],
	"nodes":[{
		"name":"AnimatedPath",
		"mesh":0
	}],
	"meshes":[{
		"name":"AnimatedPath",
		"primitives":[{
			"attributes":{
				"POSITION":1,
				"NORMAL":2,
				"TEXCOORD_0":3
			},
			"indices":0,
			"material":0
		}]
	}],
	"accessors":[{
		"bufferView":0,
		"type":"SCALAR",
		"componentType":5123,
		"count":6912,
		"byteOffset":0,
		"min":[0],
		"max":[6911]
	},
	{
		"bufferView":1,
		"type":"VEC3",
		"componentType":5126,
		"count":6912,
		"byteOffset":0,
		"min":[0.11237149685621262,
		0.001294570043683052,
		-0.007808240130543709],
		"max":[0.15566200017929078,
		0.0015945699997246266,
		0.05781373009085655]
	},
	{
		"bufferView":1,
		"type":"VEC3",
		"componentType":5126,
		"count":6912,
		"byteOffset":12,
		"min":[-0.9999998807907105,
		-1.0,
		-1.0],
		"max":[0.9999998807907105,
		1.0,
		1.0]
	},
	{
		"bufferView":1,
		"type":"VEC2",
		"componentType":5126,
		"count":6912,
		"byteOffset":24,
		"min":[0.0009367414168082178,
		0.8748220205307007],
		"max":[0.9991005063056946,
		0.8818333148956299]
	}],
	"bufferViews":[{
		"buffer":0,
		"byteOffset":0,
		"byteLength":13824,
		"target":34963
	},
	{
		"buffer":0,
		"byteOffset":13824,
		"byteLength":221184,
		"target":34962,
		"byteStride":32
	}],
	"buffers":[{
		"uri":"data:application/octet-stream;base64,",
		"byteLength":235008
	}],
	"materials":[{
		"pbrMetallicRoughness":{
			"baseColorFactor":[1.0,
			1.0,
			1.0,
			1.0],
			"metallicFactor":1.0,
			"roughnessFactor":1.0
		},
		"emissiveFactor":[0.0,
		0.0,
		0.0],
		"alphaMode":"OPAQUE",
		"doubleSided":false,
		"name":"default"
	}]
}