{
	"asset":{
		"version":"2.0",
		"generator":""
	},
	"scenes":[{
		"nodes":[0]
	}],
	"nodes":[{
		"name":"AnimatedPerson ",
		"mesh":0,
		"translation":[0.14525890350341798,
		0.000247778749326244,
		0.00473135057836771],
		"rotation":[0.0,
		0.0,
		0.0,
		-1.0],
		"scale":[1.0,
		1.0,
		1.0]
	}],
	"meshes":[{
		"name":"AnimatedPerson ",
		"primitives":[{
			"attributes":{
				"POSITION":1,
				"NORMAL":2,
				"TEXCOORD_0":3
			},
			"indices":0
		}]
	}],
	"accessors":[{
		"bufferView":0,
		"type":"SCALAR",
		"componentType":5123,
		"count":3504,
		"byteOffset":0,
		"min":[0],
		"max":[3503]
	},
	{
		"bufferView":1,
		"type":"VEC3",
		"componentType":5126,
		"count":3504,
		"byteOffset":0,
		"min":[-0.0008605706389062107,
		0.0,
		-0.0008605706389062107],
		"max":[0.0008605706389062107,
		0.003458395367488265,
		0.0008605706389062107]
	},
	{
		"bufferView":1,
		"type":"VEC3",
		"componentType":5126,
		"count":3504,
		"byteOffset":12,
		"min":[-1.0,
		-1.0,
		-1.0],
		"max":[1.0,
		1.0,
		1.0]
	},
	{
		"bufferView":1,
		"type":"VEC2",
		"componentType":5126,
		"count":3504,
		"byteOffset":24,
		"min":[0.0,
		0.0],
		"max":[1.0,
		1.0]
	},
	{
		"bufferView":2,
		"type":"SCALAR",
		"componentType":5126,
		"count":1001,
		"byteOffset":0,
		"min":[0.0],
		"max":[33.33333206176758]
	},
	{
		"bufferView":2,
		"type":"VEC3",
		"componentType":5126,
		"count":1001,
		"byteOffset":4004,
		"min":[0.1125214695930481,
		0.0,
		-0.007658237591385841],
		"max":[0.15552885830402375,
		0.0,
		0.05766373127698898]
	}],
	"bufferViews":[{
		"buffer":0,
		"byteOffset":0,
		"byteLength":7008,
		"target":34963
	},
	{
		"buffer":0,
		"byteOffset":7008,
		"byteLength":112128,
		"target":34962,
		"byteStride":32
	},
	{
		"buffer":1,
		"byteOffset":0,
		"byteLength":16016
	}],
	"buffers":[{
		"uri":"data:application/octet-stream;base64,",
		"byteLength":119136
	},
	{
		"uri":"data:application/octet-stream;base64,",
		"byteLength":16016
	}],
	"animations":[{
		"samplers":[{
			"input":4,
			"interpolation":"LINEAR",
			"output":5
		}],
		"channels":[{
			"sampler":0,
			"target":{
				"node":0,
				"path":"translation"
			}
		}]
	}]
}