{
	"asset":{
		"version":"2.0",
		"generator":""
	},
	"scenes":[{
		"nodes":[0]
	}],
	"nodes":[{
		"name":"Buildings",
		"mesh":0
	}],
	"meshes":[{
		"name":"Buildings",
		"primitives":[{
			"attributes":{
				"POSITION":1,
				"NORMAL":2,
				"TEXCOORD_0":3
			},
			"indices":0
		}]
	}],
	"accessors":[{
		"bufferView":0,
		"min":[0],
		"byteOffset":0,
		"type":"SCALAR",
		"componentType":5123,
		"count":5640,
		"max":[5639]
	},
	{
		"bufferView":1,
		"min":[-0.6010004878044128,
		-0.002645528642460704,
		-0.7808905839920044],
		"byteOffset":0,
		"type":"VEC3",
		"componentType":5126,
		"count":5640,
		"max":[0.4975172281265259,
		0.16848845779895783,
		0.6852700710296631]
	},
	{
		"bufferView":1,
		"min":[-1.0,
		-1.0,
		-1.0],
		"byteOffset":12,
		"type":"VEC3",
		"componentType":5126,
		"count":5640,
		"max":[1.0,
		1.0,
		1.0]
	},
	{
		"bufferView":1,
		"min":[0.0,
		0.0],
		"byteOffset":24,
		"type":"VEC2",
		"componentType":5126,
		"count":5640,
		"max":[1.0,
		1.0]
	}],
	"bufferViews":[{
		"buffer":0,
		"byteOffset":0,
		"byteLength":11280,
		"target":34963
	},
	{
		"buffer":0,
		"byteOffset":11280,
		"byteLength":180480,
		"target":34962,
		"byteStride":32
	}],
	"buffers":[{
		"uri":"data:application/octet-stream;base64,",
		"byteLength":191760
	}]
}