{
	"asset":{
		"version":"2.0",
		"generator":""
	},
	"scenes":[{
		"nodes":[0]
	}],
	"nodes":[{
		"name":"Crowd",
		"mesh":0,
		"translation":[0.0,
		0.00035791390109807253,
		0.0],
		"rotation":[0.0,
		0.0,
		0.0,
		-1.0],
		"scale":[1.0,
		1.0,
		1.0]
	}],
	"meshes":[{
		"name":"Crowd",
		"primitives":[{
			"attributes":{
				"POSITION":1,
				"NORMAL":2,
				"TEXCOORD_0":3
			},
			"indices":0
		}]
	}],
	"accessors":[{
		"bufferView":0,
		"type":"SCALAR",
		"componentType":5123,
		"count":28032,
		"byteOffset":0,
		"min":[0],
		"max":[28031]
	},
	{
		"bufferView":1,
		"type":"VEC3",
		"componentType":5126,
		"count":28032,
		"byteOffset":0,
		"min":[0.1307586431503296,
		0.0,
		-0.01794043742120266],
		"max":[0.15520347654819489,
		0.003458395367488265,
		0.04522080346941948]
	},
	{
		"bufferView":1,
		"type":"VEC3",
		"componentType":5126,
		"count":28032,
		"byteOffset":12,
		"min":[-1.0,
		-1.0,
		-1.0],
		"max":[1.0,
		1.0,
		1.0]
	},
	{
		"bufferView":1,
		"type":"VEC2",
		"componentType":5126,
		"count":28032,
		"byteOffset":24,
		"min":[0.0,
		0.0],
		"max":[1.0,
		1.0]
	}],
	"bufferViews":[{
		"buffer":0,
		"byteOffset":0,
		"byteLength":56064,
		"target":34963
	},
	{
		"buffer":0,
		"byteOffset":56064,
		"byteLength":897024,
		"target":34962,
		"byteStride":32
	}],
	"buffers":[{
		"uri":"data:application/octet-stream;base64,",
		"byteLength":953088
	}]
}