{
	"asset":{
		"version":"2.0",
		"generator":""
	},
	"scenes":[{
		"nodes":[0]
	}],
	"nodes":[{
		"name":"Data",
		"mesh":0
	}],
	"meshes":[{
		"name":"Data",
		"primitives":[{
			"attributes":{
				"POSITION":1,
				"NORMAL":2,
				"TEXCOORD_0":3
			},
			"indices":0,
			"material":0
		}]
	}],
	"accessors":[{
		"bufferView":0,
		"min":[0],
		"byteOffset":0,
		"type":"SCALAR",
		"componentType":5123,
		"count":108,
		"max":[107]
	},
	{
		"bufferView":1,
		"min":[-0.5272857546806336,
		0.0064641437493264679,
		-0.8980428576469421],
		"byteOffset":0,
		"type":"VEC3",
		"componentType":5126,
		"count":108,
		"max":[0.6503002643585205,
		0.014577466063201428,
		0.7260905504226685]
	},
	{
		"bufferView":1,
		"min":[-0.01221898477524519,
		0.999925434589386,
		-0.005031343549489975],
		"byteOffset":12,
		"type":"VEC3",
		"componentType":5126,
		"count":108,
		"max":[0.00215631234459579,
		0.9999998807907105,
		0.0]
	},
	{
		"bufferView":1,
		"min":[-0.001647906145080924,
		0.014640524983406067],
		"byteOffset":24,
		"type":"VEC2",
		"componentType":5126,
		"count":108,
		"max":[0.9826905727386475,
		0.9948662519454956]
	}],
	"bufferViews":[{
		"buffer":0,
		"byteOffset":0,
		"byteLength":216,
		"target":34963
	},
	{
		"buffer":0,
		"byteOffset":216,
		"byteLength":3456,
		"target":34962,
		"byteStride":32
	}],
	"buffers":[{
		"uri":"data:application/octet-stream;base64,",
		"byteLength":3672
	}],
	"materials":[{
		"pbrMetallicRoughness":{
			"baseColorFactor":[0.08820000000000002,
			0.2778300000000005,
			0.63,
			1.0],
			"metallicFactor":0.0,
			"roughnessFactor":0.5
		},
		"emissiveFactor":[0.0,
		0.0,
		0.0],
		"alphaMode":"OPAQUE",
		"doubleSided":false,
		"name":"Mat.1"
	}]
}