{
	"asset":{
		"version":"2.0",
		"generator":""
	},
	"scenes":[{
		"nodes":[0]
	}],
	"accessors":[{
		"bufferView":0,
		"type":"SCALAR",
		"componentType":5123,
		"count":3336,
		"byteOffset":0,
		"min":[0],
		"max":[3335]
	},
	{
		"bufferView":1,
		"type":"VEC3",
		"componentType":5126,
		"count":3336,
		"byteOffset":0,
		"min":[-2.546372175216675,
		-2.1058919429779054,
		-1.4933140277862549],
		"max":[2.546372175216675,
		2.105879306793213,
		1.476090669631958]
	},
	{
		"bufferView":1,
		"type":"VEC3",
		"componentType":5126,
		"count":3336,
		"byteOffset":12,
		"min":[-0.9999461770057678,
		-0.9699381589889526,
		-0.9992526173591614],
		"max":[0.9999461770057678,
		0.9938757419586182,
		0.9999967813491821]
	},
	{
		"bufferView":1,
		"type":"VEC2",
		"componentType":5126,
		"count":3336,
		"byteOffset":24,
		"min":[0.01727999933063984,
		0.11003999412059784],
		"max":[0.9829800128936768,
		0.8611500263214111]
	}],
	"nodes":[{
		"name":"ZBrush_defualt_group",
		"mesh":0
	}],
	"meshes":[{
		"name":"ZBrush_defualt_group",
		"primitives":[{
			"attributes":{
				"NORMAL":2,
				"POSITION":1,
				"TEXCOORD_0":3
			},
			"indices":0,
			"material":0
		}]
	}],
	"bufferViews":[{
		"buffer":0,
		"byteOffset":0,
		"byteLength":6672,
		"target":34963
	},
	{
		"buffer":0,
		"byteOffset":6672,
		"byteLength":106752,
		"target":34962,
		"byteStride":32
	}],
	"buffers":[{
		"uri":"data:application/octet-stream;base64,",
		"byteLength":113424
	}],
	"images":[{
		"uri":"data:image/png;base64,"
	}],
	"samplers":[{
		"magFilter":9729,
		"minFilter":9729,
		"wrapS":10497,
		"wrapT":10497
	}],
	"textures":[{
		"sampler":0,
		"source":0
	}],
	"materials":[{
		"pbrMetallicRoughness":{
			"baseColorTexture":{
				"index":0
			},
			"baseColorFactor":[1.0,
			1.0,
			1.0,
			1.0],
			"metallicFactor":0.0,
			"roughnessFactor":1.0
		},
		"emissiveFactor":[0.0,
		0.0,
		0.0],
		"alphaMode":"OPAQUE",
		"doubleSided":false,
		"name":"defaultMat"
	}]
}