{
	"asset":{
		"version":"2.0",
		"generator":""
	},
	"scenes":[{
		"nodes":[0]
	}],
	"nodes":[{
		"name":"FacilityBase",
		"mesh":0
	}],
	"meshes":[{
		"name":"FacilityBase",
		"primitives":[{
			"attributes":{
				"POSITION":1,
				"NORMAL":2,
				"TEXCOORD_0":3
			},
			"indices":0
		}]
	}],
	"accessors":[{
		"bufferView":0,
		"min":[0],
		"byteOffset":0,
		"type":"SCALAR",
		"componentType":5123,
		"count":540,
		"max":[539]
	},
	{
		"bufferView":1,
		"min":[-0.17623373866081239,
		0.0,
		0.25555619597435],
		"byteOffset":0,
		"type":"VEC3",
		"componentType":5126,
		"count":540,
		"max":[-0.10532735288143158,
		0.13081759214401246,
		0.3171040713787079]
	},
	{
		"bufferView":1,
		"min":[-1.0,
		-1.0,
		-1.0],
		"byteOffset":12,
		"type":"VEC3",
		"componentType":5126,
		"count":540,
		"max":[1.0,
		1.0,
		1.0]
	},
	{
		"bufferView":1,
		"min":[0.0,
		0.0],
		"byteOffset":24,
		"type":"VEC2",
		"componentType":5126,
		"count":540,
		"max":[1.0,
		1.0]
	}],
	"bufferViews":[{
		"buffer":0,
		"byteOffset":0,
		"byteLength":1080,
		"target":34963
	},
	{
		"buffer":0,
		"byteOffset":1080,
		"byteLength":17280,
		"target":34962,
		"byteStride":32
	}],
	"buffers":[{
		"uri":"data:application/octet-stream;base64,",
		"byteLength":18360
	}]
}