{
	"asset":{
		"version":"2.0",
		"generator":""
	},
	"scenes":[{
		"nodes":[0]
	}],
	"nodes":[{
		"name":"FacilityFacade",
		"mesh":0
	}],
	"meshes":[{
		"name":"FacilityFacade",
		"primitives":[{
			"attributes":{
				"POSITION":1,
				"NORMAL":2,
				"TEXCOORD_0":3
			},
			"indices":0
		}]
	}],
	"accessors":[{
		"bufferView":0,
		"type":"SCALAR",
		"componentType":5123,
		"count":702,
		"byteOffset":0,
		"min":[0],
		"max":[701]
	},
	{
		"bufferView":1,
		"type":"VEC3",
		"componentType":5126,
		"count":702,
		"byteOffset":0,
		"min":[-0.18055781722068788,
		0.0,
		0.2525540888309479],
		"max":[-0.10142777115106583,
		0.1329914629459381,
		0.3195668160915375]
	},
	{
		"bufferView":1,
		"type":"VEC3",
		"componentType":5126,
		"count":702,
		"byteOffset":12,
		"min":[-1.0,
		-1.0,
		-1.0],
		"max":[1.0,
		1.0,
		1.0]
	},
	{
		"bufferView":1,
		"type":"VEC2",
		"componentType":5126,
		"count":702,
		"byteOffset":24,
		"min":[0.0,
		0.0],
		"max":[1.0,
		1.0]
	}],
	"bufferViews":[{
		"buffer":0,
		"byteOffset":0,
		"byteLength":1404,
		"target":34963
	},
	{
		"buffer":0,
		"byteOffset":1404,
		"byteLength":22464,
		"target":34962,
		"byteStride":32
	}],
	"buffers":[{
		"uri":"data:application/octet-stream;base64,",
		"byteLength":23868
	}]
}