{
	"asset":{
		"version":"2.0",
		"generator":""
	},
	"scenes":[{
		"nodes":[0]
	}],
	"accessors":[{
		"bufferView":0,
		"type":"SCALAR",
		"componentType":5123,
		"count":17418,
		"byteOffset":0,
		"min":[0],
		"max":[17417]
	},
	{
		"bufferView":1,
		"type":"VEC3",
		"componentType":5126,
		"count":17418,
		"byteOffset":0,
		"min":[-0.0010146640706807376,
		-0.000011350211934768595,
		-0.001239428180269897],
		"max":[0.0010290994541719556,
		0.0022450543474406006,
		0.0011800529900938273]
	},
	{
		"bufferView":1,
		"type":"VEC3",
		"componentType":5126,
		"count":17418,
		"byteOffset":12,
		"min":[-0.9999492764472961,
		-0.9977056980133057,
		-0.9994364380836487],
		"max":[0.999175488948822,
		0.9993181228637695,
		0.9998926520347595]
	},
	{
		"bufferView":1,
		"type":"VEC2",
		"componentType":5126,
		"count":17418,
		"byteOffset":24,
		"min":[0.025474999099969865,
		0.013450000435113907],
		"max":[0.983551025390625,
		0.9902549982070923]
	}],
	"nodes":[{
		"name":"Hair",
		"mesh":0,
		"translation":[0.0,
		0.026220325380563737,
		0.0],
		"rotation":[0.0,
		0.0,
		0.0,
		-1.0],
		"scale":[1000.0,
		1000.0,
		1000.0]
	}],
	"meshes":[{
		"name":"Hair",
		"primitives":[{
			"attributes":{
				"NORMAL":2,
				"POSITION":1,
				"TEXCOORD_0":3
			},
			"indices":0,
			"material":0
		}]
	}],
	"bufferViews":[{
		"buffer":0,
		"byteOffset":0,
		"byteLength":34836,
		"target":34963
	},
	{
		"buffer":0,
		"byteOffset":34836,
		"byteLength":557376,
		"target":34962,
		"byteStride":32
	}],
	"buffers":[{
		"uri":"data:application/octet-stream;base64,",
		"byteLength":592212
	}],
	"materials":[{
		"pbrMetallicRoughness":{
			"baseColorFactor":[0.2,
			0.2,
			0.2,
			1.0],
			"metallicFactor":0.0,
			"roughnessFactor":0.5
		},
		"emissiveFactor":[0.0,
		0.0,
		0.0],
		"alphaMode":"OPAQUE",
		"doubleSided":false,
		"name":"Mat.1"
	}]
}