{
	"asset":{
		"version":"2.0",
		"generator":""
	},
	"scenes":[{
		"nodes":[0]
	}],
	"nodes":[{
		"name":"HVAC ",
		"mesh":0
	}],
	"meshes":[{
		"name":"HVAC ",
		"primitives":[{
			"attributes":{
				"POSITION":1,
				"NORMAL":2,
				"TEXCOORD_0":3
			},
			"indices":0,
			"material":0
		}]
	}],
	"accessors":[{
		"bufferView":0,
		"min":[0],
		"byteOffset":0,
		"type":"SCALAR",
		"componentType":5123,
		"count":5952,
		"max":[5951]
	},
	{
		"bufferView":1,
		"min":[-0.17655479907989503,
		0.0,
		0.27409809827804568],
		"byteOffset":0,
		"type":"VEC3",
		"componentType":5126,
		"count":5952,
		"max":[-0.10324525088071823,
		0.13029558956623078,
		0.2999855577945709]
	},
	{
		"bufferView":1,
		"min":[-1.0,
		-1.0,
		-1.0],
		"byteOffset":12,
		"type":"VEC3",
		"componentType":5126,
		"count":5952,
		"max":[1.0,
		1.0,
		1.0]
	},
	{
		"bufferView":1,
		"min":[0.0,
		0.0],
		"byteOffset":24,
		"type":"VEC2",
		"componentType":5126,
		"count":5952,
		"max":[1.0,
		1.0]
	}],
	"bufferViews":[{
		"buffer":0,
		"byteOffset":0,
		"byteLength":11904,
		"target":34963
	},
	{
		"buffer":0,
		"byteOffset":11904,
		"byteLength":190464,
		"target":34962,
		"byteStride":32
	}],
	"buffers":[{
		"uri":"data:application/octet-stream;base64,",
		"byteLength":202368
	}],
	"materials":[{
		"pbrMetallicRoughness":{
			"baseColorFactor":[1.0,
			0.39,
			0.39,
			1.0],
			"metallicFactor":0.0,
			"roughnessFactor":0.5
		},
		"emissiveFactor":[0.0,
		0.0,
		0.0],
		"alphaMode":"OPAQUE",
		"doubleSided":false,
		"name":"Mat.6"
	}]
}