{
	"asset":{
		"version":"2.0",
		"generator":""
	},
	"scenes":[{
		"nodes":[0]
	}],
	"nodes":[{
		"name":"RetailFloor",
		"mesh":0
	}],
	"meshes":[{
		"name":"RetailFloor",
		"primitives":[{
			"attributes":{
				"POSITION":1,
				"NORMAL":2,
				"TEXCOORD_0":3
			},
			"indices":0
		}]
	}],
	"accessors":[{
		"bufferView":0,
		"min":[0],
		"byteOffset":0,
		"type":"SCALAR",
		"componentType":5123,
		"count":6,
		"max":[5]
	},
	{
		"bufferView":1,
		"min":[0.10562828928232193,
		0.0003115552826784551,
		-0.01970270462334156],
		"byteOffset":0,
		"type":"VEC3",
		"componentType":5126,
		"count":6,
		"max":[0.16505341231822968,
		0.0003115552826784551,
		0.06415833532810211]
	},
	{
		"bufferView":1,
		"min":[0.0,
		1.0,
		0.0],
		"byteOffset":12,
		"type":"VEC3",
		"componentType":5126,
		"count":6,
		"max":[0.0,
		1.0,
		0.0]
	},
	{
		"bufferView":1,
		"min":[0.007657958194613457,
		0.4346736669540405],
		"byteOffset":24,
		"type":"VEC2",
		"componentType":5126,
		"count":6,
		"max":[0.4820055663585663,
		0.6384061574935913]
	}],
	"bufferViews":[{
		"buffer":0,
		"byteOffset":0,
		"byteLength":12,
		"target":34963
	},
	{
		"buffer":0,
		"byteOffset":12,
		"byteLength":192,
		"target":34962,
		"byteStride":32
	}],
	"buffers":[{
		"uri":"data:application/octet-stream;base64,",
		"byteLength":204
	}]
}