{
	"asset":{
		"version":"2.0",
		"generator":""
	},
	"scenes":[{
		"nodes":[0]
	}],
	"nodes":[{
		"name":"Retail Base",
		"mesh":0
	}],
	"meshes":[{
		"name":"Retail Base",
		"primitives":[{
			"attributes":{
				"POSITION":1,
				"NORMAL":2,
				"TEXCOORD_0":3
			},
			"indices":0
		}]
	}],
	"accessors":[{
		"bufferView":0,
		"min":[0],
		"byteOffset":0,
		"type":"SCALAR",
		"componentType":5123,
		"count":744,
		"max":[743]
	},
	{
		"bufferView":1,
		"min":[0.10509118437767029,
		2.2204459996194765e-18,
		-0.020296217873692514],
		"byteOffset":0,
		"type":"VEC3",
		"componentType":5126,
		"count":744,
		"max":[0.1680615395307541,
		0.01880430430173874,
		0.06475184857845307]
	},
	{
		"bufferView":1,
		"min":[-1.0,
		-1.0,
		-1.0],
		"byteOffset":12,
		"type":"VEC3",
		"componentType":5126,
		"count":744,
		"max":[1.0,
		1.0,
		1.0]
	},
	{
		"bufferView":1,
		"min":[0.007657958194613457,
		0.007657958194613457],
		"byteOffset":24,
		"type":"VEC2",
		"componentType":5126,
		"count":744,
		"max":[0.9716691374778748,
		0.9923419952392578]
	}],
	"bufferViews":[{
		"buffer":0,
		"byteOffset":0,
		"byteLength":1488,
		"target":34963
	},
	{
		"buffer":0,
		"byteOffset":1488,
		"byteLength":23808,
		"target":34962,
		"byteStride":32
	}],
	"buffers":[{
		"uri":"data:application/octet-stream;base64,",
		"byteLength":25296
	}]
}