{
	"asset":{
		"version":"2.0",
		"generator":""
	},
	"scenes":[{
		"nodes":[0]
	}],
	"nodes":[{
		"name":"SecondaryTrees",
		"mesh":0,
		"translation":[0.0,
		0.0117587735876441,
		0.0],
		"rotation":[0.0,
		0.0,
		0.0,
		-1.0],
		"scale":[1.0,
		1.0,
		1.0]
	}],
	"meshes":[{
		"primitives":[{
			"attributes":{
				"POSITION":1,
				"NORMAL":2,
				"TEXCOORD_0":3
			},
			"indices":0
		}],
		"name":"SecondaryTrees"
	}],
	"accessors":[{
		"bufferView":0,
		"byteOffset":0,
		"type":"SCALAR",
		"componentType":5123,
		"count":2640,
		"min":[0],
		"max":[2639]
	},
	{
		"bufferView":1,
		"byteOffset":0,
		"type":"VEC3",
		"componentType":5126,
		"count":2640,
		"min":[-0.04983234032988548,
		-0.007726795040071011,
		-0.18982139229774476],
		"max":[0.32723477482795718,
		0.008265756070613861,
		0.26190921664237978]
	},
	{
		"bufferView":1,
		"byteOffset":12,
		"type":"VEC3",
		"componentType":5126,
		"count":2640,
		"min":[-0.9978112578392029,
		-0.9067643880844116,
		-0.9686920642852783],
		"max":[0.9978112578392029,
		0.9067608118057251,
		0.9686920642852783]
	},
	{
		"bufferView":1,
		"byteOffset":24,
		"type":"VEC2",
		"componentType":5126,
		"count":2640,
		"min":[0.0,
		0.0],
		"max":[1.0,
		1.0]
	}],
	"bufferViews":[{
		"target":34963,
		"buffer":0,
		"byteOffset":0,
		"byteLength":5280
	},
	{
		"target":34962,
		"buffer":0,
		"byteOffset":5280,
		"byteLength":84480,
		"byteStride":32
	}],
	"buffers":[{
		"uri":"data:application/octet-stream;base64,",
		"byteLength":89760
	}]
}