{
	"asset":{
		"version":"2.0",
		"generator":""
	},
	"scenes":[{
		"nodes":[0]
	}],
	"nodes":[{
		"name":"Sewer",
		"mesh":0
	}],
	"meshes":[{
		"name":"Sewer",
		"primitives":[{
			"attributes":{
				"POSITION":1,
				"NORMAL":2,
				"TEXCOORD_0":3
			},
			"indices":0,
			"material":0
		}]
	}],
	"accessors":[{
		"bufferView":0,
		"min":[0],
		"byteOffset":0,
		"type":"SCALAR",
		"componentType":5123,
		"count":672,
		"max":[671]
	},
	{
		"bufferView":1,
		"min":[-0.17636650800704957,
		-0.0045800660736858849,
		0.31124502420425417],
		"byteOffset":0,
		"type":"VEC3",
		"componentType":5126,
		"count":672,
		"max":[-0.10357528179883957,
		0.13048212230205537,
		0.31342199444770815]
	},
	{
		"bufferView":1,
		"min":[-1.0,
		-1.0,
		-0.9238885045051575],
		"byteOffset":12,
		"type":"VEC3",
		"componentType":5126,
		"count":672,
		"max":[1.0,
		1.0,
		0.9238885045051575]
	},
	{
		"bufferView":1,
		"min":[0.0,
		0.0],
		"byteOffset":24,
		"type":"VEC2",
		"componentType":5126,
		"count":672,
		"max":[1.0,
		1.0]
	}],
	"bufferViews":[{
		"buffer":0,
		"byteOffset":0,
		"byteLength":1344,
		"target":34963
	},
	{
		"buffer":0,
		"byteOffset":1344,
		"byteLength":21504,
		"target":34962,
		"byteStride":32
	}],
	"buffers":[{
		"uri":"data:application/octet-stream;base64,",
		"byteLength":22848
	}],
	"materials":[{
		"pbrMetallicRoughness":{
			"baseColorFactor":[0.08820000000000002,
			0.2778300000000005,
			0.63,
			1.0],
			"metallicFactor":0.0,
			"roughnessFactor":0.5
		},
		"emissiveFactor":[0.0,
		0.0,
		0.0],
		"alphaMode":"OPAQUE",
		"doubleSided":false,
		"name":"Mat.1"
	}]
}