{
	"asset":{
		"version":"2.0",
		"generator":""
	},
	"scenes":[{
		"nodes":[0]
	}],
	"nodes":[{
		"name":"Shelves",
		"mesh":0
	}],
	"meshes":[{
		"name":"Shelves",
		"primitives":[{
			"attributes":{
				"POSITION":1,
				"NORMAL":2,
				"TEXCOORD_0":3
			},
			"indices":0
		}]
	}],
	"accessors":[{
		"bufferView":0,
		"type":"SCALAR",
		"componentType":5123,
		"count":1548,
		"byteOffset":0,
		"min":[0],
		"max":[1547]
	},
	{
		"bufferView":1,
		"type":"VEC3",
		"componentType":5126,
		"count":1548,
		"byteOffset":0,
		"min":[0.10524506866931915,
		2.0986461359628807e-19,
		-0.019511811435222627],
		"max":[0.16530907154083253,
		0.010245335288345814,
		0.06417063623666763]
	},
	{
		"bufferView":1,
		"type":"VEC3",
		"componentType":5126,
		"count":1548,
		"byteOffset":12,
		"min":[-1.0,
		-1.0,
		-1.0],
		"max":[1.0,
		1.0,
		1.0]
	},
	{
		"bufferView":1,
		"type":"VEC2",
		"componentType":5126,
		"count":1548,
		"byteOffset":24,
		"min":[0.0,
		0.0],
		"max":[1.0,
		1.0]
	}],
	"bufferViews":[{
		"buffer":0,
		"byteOffset":0,
		"byteLength":3096,
		"target":34963
	},
	{
		"buffer":0,
		"byteOffset":3096,
		"byteLength":49536,
		"target":34962,
		"byteStride":32
	}],
	"buffers":[{
		"uri":"data:application/octet-stream;base64,",
		"byteLength":52632
	}]
}