{
	"asset":{
		"version":"2.0",
		"generator":""
	},
	"scenes":[{
		"nodes":[0]
	}],
	"nodes":[{
		"name":"Trees",
		"mesh":0,
		"translation":[0.0,
		0.0117587735876441,
		0.0],
		"rotation":[0.0,
		0.0,
		0.0,
		-1.0],
		"scale":[1.0,
		1.0,
		1.0]
	}],
	"meshes":[{
		"primitives":[{
			"attributes":{
				"POSITION":1,
				"NORMAL":2,
				"TEXCOORD_0":3
			},
			"indices":0
		}],
		"name":"Trees"
	}],
	"accessors":[{
		"bufferView":0,
		"byteOffset":0,
		"type":"SCALAR",
		"componentType":5123,
		"count":11280,
		"min":[0],
		"max":[11279]
	},
	{
		"bufferView":1,
		"byteOffset":0,
		"type":"VEC3",
		"componentType":5126,
		"count":11280,
		"min":[-0.3422728180885315,
		-0.014324795454740525,
		-0.1934167742729187],
		"max":[-0.22204630076885224,
		0.008109008893370629,
		0.19402088224887849]
	},
	{
		"bufferView":1,
		"byteOffset":12,
		"type":"VEC3",
		"componentType":5126,
		"count":11280,
		"min":[-0.999936044216156,
		-0.9067668914794922,
		-0.9999497532844544],
		"max":[0.999936044216156,
		0.9067642688751221,
		0.9999497532844544]
	},
	{
		"bufferView":1,
		"byteOffset":24,
		"type":"VEC2",
		"componentType":5126,
		"count":11280,
		"min":[0.0,
		0.0],
		"max":[1.0,
		1.0]
	}],
	"bufferViews":[{
		"target":34963,
		"buffer":0,
		"byteOffset":0,
		"byteLength":22560
	},
	{
		"target":34962,
		"buffer":0,
		"byteOffset":22560,
		"byteLength":360960,
		"byteStride":32
	}],
	"buffers":[{
		"uri":"data:application/octet-stream;base64,",
		"byteLength":383520
	}]
}